# xmcd
#
# Track frame offsets:
# 150
# 19814
# 35396
# 50469
# 65937
# 89052
# 108730
# 125748
# 138681
# 153252
# 168219
# 184079
# 204549
# 222535
# 234575
# 249250
# 263221
# 279534
# 294348
#
# Disc length: 4149 seconds
#
# Revision: 1
# Processed by: cddbd v1.5.1PL0 Copyright (c) Steve Scherf et al.
# Submitted via: Easy CD Ripper v2.27
#
DISCID=29103313
DTITLE=eri - Hittiparaati 2 CD1
DYEAR=2003
DGENRE=Other
TTITLE0=Missisippi - KariT ja PaulaK
TTITLE1=Tuhlaajatyttö palaa - Anne Mattila
TTITLE2=En ole hän - MikkoMäkeläinen and Myrskylyhty
TTITLE3=Makeaa - Antti Raiski
TTITLE4=En sanonut niin - Sheidi
TTITLE5=Haavoittunut pikkuinen - Puolikuu
TTITLE6=Meidän laulu - Matti and Teppo
TTITLE7=Yksin kuljen sateeseen - Pirjo Kämppi
TTITLE8=Kun eron hetki on - Mamba
TTITLE9=Viilentyvän tunteiden - MarkusT and FBI beat
TTITLE10=Jotain ohi on - Mari Rantasila
TTITLE11=Kesä häipyy - Tommi Läntinen
TTITLE12=Nukkuva nainen - T.T. Purontaka
TTITLE13=Nauran ja rakastan - Arja Koriseva
TTITLE14=Vaarallinen nainen - Taikakuu
TTITLE15=Viisi pitkää yötä - Matti Esko
TTITLE16=Sydämeen viilsit haavan - Kirka
TTITLE17=Tsiribom - Kansansuosikit
TTITLE18=Aurinko voittaa - Menneisyyden vangit
EXTD=
EXTT0=
EXTT1=
EXTT2=
EXTT3=
EXTT4=
EXTT5=
EXTT6=
EXTT7=
EXTT8=
EXTT9=
EXTT10=
EXTT11=
EXTT12=
EXTT13=
EXTT14=
EXTT15=
EXTT16=
EXTT17=
EXTT18=
PLAYORDER=
